<?xml version="1.0" encoding="UTF-8" standalone="no"?>
<!-- Created with Inkscape (http://www.inkscape.org/) -->

<svg
   xmlns:dc="http://purl.org/dc/elements/1.1/"
   xmlns:cc="http://creativecommons.org/ns#"
   xmlns:rdf="http://www.w3.org/1999/02/22-rdf-syntax-ns#"
   xmlns:svg="http://www.w3.org/2000/svg"
   xmlns="http://www.w3.org/2000/svg"
   xmlns:xlink="http://www.w3.org/1999/xlink"
   xmlns:sodipodi="http://sodipodi.sourceforge.net/DTD/sodipodi-0.dtd"
   xmlns:inkscape="http://www.inkscape.org/namespaces/inkscape"
   width="744.09448819"
   height="1052.3622047"
   id="svg6047"
   version="1.1"
   inkscape:version="0.48.0 r9654"
   sodipodi:docname="Новый документ 4">
  <defs
     id="defs6049">
    <filter
       inkscape:collect="always"
       id="filter6817-0"
       color-interpolation-filters="sRGB">
      <feGaussianBlur
         inkscape:collect="always"
         stdDeviation="1.0029728"
         id="feGaussianBlur6819-7" />
    </filter>
    <radialGradient
       inkscape:collect="always"
       xlink:href="#linearGradient8247-2-8"
       id="radialGradient4197"
       gradientUnits="userSpaceOnUse"
       gradientTransform="matrix(-0.26403328,0,0,0.27147086,486.52487,-572.51947)"
       cx="2167.6785"
       cy="350.14258"
       fx="2167.6785"
       fy="350.14258"
       r="33.252693" />
    <linearGradient
       inkscape:collect="always"
       id="linearGradient8247-2-8">
      <stop
         style="stop-color:#909090;stop-opacity:1;"
         offset="0"
         id="stop8249-7-8" />
      <stop
         style="stop-color:#909090;stop-opacity:0;"
         offset="1"
         id="stop8251-4-5" />
    </linearGradient>
    <inkscape:path-effect
       effect="skeletal"
       id="path-effect5133-3"
       is_visible="true"
       pattern="m -1448.4011,-1064.0538 0,10 10,-5 z"
       copytype="single_stretched"
       prop_scale="0.3"
       scale_y_rel="false"
       spacing="0"
       normal_offset="0"
       tang_offset="0"
       prop_units="false"
       vertical_pattern="false"
       fuse_tolerance="0" />
    <linearGradient
       inkscape:collect="always"
       xlink:href="#linearGradient6773-5"
       id="linearGradient4141"
       gradientUnits="userSpaceOnUse"
       gradientTransform="translate(-1821.2701,210.67477)"
       x1="1733.9086"
       y1="179.60817"
       x2="1737.8322"
       y2="162.73067" />
    <linearGradient
       id="linearGradient6773-5">
      <stop
         style="stop-color:#33661c;stop-opacity:1;"
         offset="0"
         id="stop6775-2" />
      <stop
         style="stop-color:#81d25f;stop-opacity:1;"
         offset="1"
         id="stop6777-54" />
    </linearGradient>
    <filter
       inkscape:collect="always"
       id="filter6801-7"
       x="-0.066076808"
       width="1.1321536"
       y="-0.15495712"
       height="1.3099142"
       color-interpolation-filters="sRGB">
      <feGaussianBlur
         inkscape:collect="always"
         stdDeviation="2.3402698"
         id="feGaussianBlur6803-44" />
    </filter>
    <inkscape:path-effect
       effect="skeletal"
       id="path-effect5216-7"
       is_visible="true"
       pattern="m -1448.4011,-1064.0538 0,10 10,-5 z"
       copytype="single_stretched"
       prop_scale="0.03"
       scale_y_rel="false"
       spacing="0"
       normal_offset="0"
       tang_offset="0"
       prop_units="false"
       vertical_pattern="false"
       fuse_tolerance="0" />
    <inkscape:path-effect
       effect="skeletal"
       id="path-effect6086-3"
       is_visible="true"
       pattern="m -1448.4011,-1064.0538 0,10 10,-5 z"
       copytype="single_stretched"
       prop_scale="0.02"
       scale_y_rel="false"
       spacing="0"
       normal_offset="0"
       tang_offset="0"
       prop_units="false"
       vertical_pattern="false"
       fuse_tolerance="0" />
    <inkscape:path-effect
       effect="skeletal"
       id="path-effect6090-9"
       is_visible="true"
       pattern="m -1448.4011,-1064.0538 0,10 10,-5 z"
       copytype="single_stretched"
       prop_scale="0.02"
       scale_y_rel="false"
       spacing="0"
       normal_offset="0"
       tang_offset="0"
       prop_units="false"
       vertical_pattern="false"
       fuse_tolerance="0" />
    <inkscape:path-effect
       effect="skeletal"
       id="path-effect6094-6"
       is_visible="true"
       pattern="m -1448.4011,-1064.0538 0,10 10,-5 z"
       copytype="single_stretched"
       prop_scale="0.015"
       scale_y_rel="false"
       spacing="0"
       normal_offset="0"
       tang_offset="0"
       prop_units="false"
       vertical_pattern="false"
       fuse_tolerance="0" />
    <inkscape:path-effect
       effect="skeletal"
       id="path-effect6098-5"
       is_visible="true"
       pattern="m -1448.4011,-1064.0538 0,10 10,-5 z"
       copytype="single_stretched"
       prop_scale="0.01"
       scale_y_rel="false"
       spacing="0"
       normal_offset="0"
       tang_offset="0"
       prop_units="false"
       vertical_pattern="false"
       fuse_tolerance="0" />
    <inkscape:path-effect
       effect="skeletal"
       id="path-effect6102-6"
       is_visible="true"
       pattern="m -1448.4011,-1064.0538 0,10 10,-5 z"
       copytype="single_stretched"
       prop_scale="0.02"
       scale_y_rel="false"
       spacing="0"
       normal_offset="0"
       tang_offset="-0.1"
       prop_units="false"
       vertical_pattern="false"
       fuse_tolerance="0" />
    <inkscape:path-effect
       effect="skeletal"
       id="path-effect6106-7"
       is_visible="true"
       pattern="m -1448.4011,-1064.0538 0,10 10,-5 z"
       copytype="single_stretched"
       prop_scale="0.02"
       scale_y_rel="false"
       spacing="0"
       normal_offset="0"
       tang_offset="0"
       prop_units="false"
       vertical_pattern="false"
       fuse_tolerance="0" />
    <inkscape:path-effect
       fuse_tolerance="0"
       vertical_pattern="false"
       prop_units="false"
       tang_offset="0"
       normal_offset="0"
       spacing="0"
       scale_y_rel="false"
       prop_scale="0.02"
       copytype="single_stretched"
       pattern="m -1444.5442,-1081.6759 0,10 10,-5 z"
       is_visible="true"
       id="path-effect6136-4"
       effect="skeletal" />
    <inkscape:path-effect
       fuse_tolerance="0"
       vertical_pattern="false"
       prop_units="false"
       tang_offset="0"
       normal_offset="0"
       spacing="0"
       scale_y_rel="false"
       prop_scale="0.02"
       copytype="single_stretched"
       pattern="m -1445.7536,-1075.9673 0,10 10,-5 z"
       is_visible="true"
       id="path-effect6138-55"
       effect="skeletal" />
    <inkscape:path-effect
       fuse_tolerance="0"
       vertical_pattern="false"
       prop_units="false"
       tang_offset="0"
       normal_offset="0"
       spacing="0"
       scale_y_rel="false"
       prop_scale="0.01"
       copytype="single_stretched"
       pattern="m -1444.4299,-1068.6868 0,10 10,-5 z"
       is_visible="true"
       id="path-effect6140-1"
       effect="skeletal" />
    <inkscape:path-effect
       fuse_tolerance="0"
       vertical_pattern="false"
       prop_units="false"
       tang_offset="0"
       normal_offset="0"
       spacing="0"
       scale_y_rel="false"
       prop_scale="-0.01"
       copytype="single_stretched"
       pattern="m -1442.1134,-1059.3794 0,10 10,-5 z"
       is_visible="true"
       id="path-effect6142-6"
       effect="skeletal" />
    <inkscape:path-effect
       fuse_tolerance="0"
       vertical_pattern="false"
       prop_units="false"
       tang_offset="-0.1"
       normal_offset="0"
       spacing="0"
       scale_y_rel="false"
       prop_scale="0.02"
       copytype="single_stretched"
       pattern="m -1445.7536,-1085.383 0,10 10,-5 z"
       is_visible="true"
       id="path-effect6144-0"
       effect="skeletal" />
    <inkscape:path-effect
       fuse_tolerance="0"
       vertical_pattern="false"
       prop_units="false"
       tang_offset="0"
       normal_offset="0"
       spacing="0"
       scale_y_rel="false"
       prop_scale="0.02"
       copytype="single_stretched"
       pattern="m -1445.7536,-1085.3161 0,10 10,-5 z"
       is_visible="true"
       id="path-effect6146-32"
       effect="skeletal" />
    <inkscape:path-effect
       effect="skeletal"
       id="path-effect5611-44-6"
       is_visible="true"
       pattern="m 165.50087,-442.14927 c 0,-2.76 2.24,-5 5,-5 2.76,0 5,2.24 5,5 0,2.76 -2.24,5 -5,5 -2.76,0 -5,-2.24 -5,-5 z"
       copytype="single_stretched"
       prop_scale="0.1"
       scale_y_rel="false"
       spacing="0"
       normal_offset="0"
       tang_offset="0"
       prop_units="false"
       vertical_pattern="false"
       fuse_tolerance="0" />
    <filter
       color-interpolation-filters="sRGB"
       height="5.0084033"
       y="-2.0042017"
       width="1.5294118"
       x="-0.26470587"
       id="filter4745-33-0-8-3"
       inkscape:collect="always">
      <feGaussianBlur
         id="feGaussianBlur4747-8-5-2-9"
         stdDeviation="14.609826"
         inkscape:collect="always" />
    </filter>
  </defs>
  <sodipodi:namedview
     id="base"
     pagecolor="#ffffff"
     bordercolor="#666666"
     borderopacity="1.0"
     inkscape:pageopacity="0.0"
     inkscape:pageshadow="2"
     inkscape:zoom="0.44038975"
     inkscape:cx="391.21738"
     inkscape:cy="686.65371"
     inkscape:document-units="px"
     inkscape:current-layer="layer1"
     showgrid="false"
     inkscape:window-width="1278"
     inkscape:window-height="986"
     inkscape:window-x="0"
     inkscape:window-y="18"
     inkscape:window-maximized="1" />
  <metadata
     id="metadata6052">
    <rdf:RDF>
      <cc:Work
         rdf:about="">
        <dc:format>image/svg+xml</dc:format>
        <dc:type
           rdf:resource="http://purl.org/dc/dcmitype/StillImage" />
        <dc:title></dc:title>
      </cc:Work>
    </rdf:RDF>
  </metadata>
  <g
     inkscape:label="Layer 1"
     inkscape:groupmode="layer"
     id="layer1">
    <g
       transform="matrix(3.128769,0,0,3.128769,657.35344,2063.7308)"
       style="display:inline"
       id="g4200">
      <path
         inkscape:connector-curvature="0"
         transform="matrix(0.2583796,0,0,0.26403328,-523.23232,-571.29217)"
         sodipodi:nodetypes="csscc"
         id="path6805-8"
         d="m 1785.9828,153.42288 c -2.5628,-6.31072 -4.7778,-8.37952 -7.995,-12.08998 -4.174,-4.81393 -9.7492,-9.59514 -14.9667,-13.31451 -15.8158,-11.27466 -48.8606,-17.47768 -62.0401,0.37702 9.4327,27.95644 53.6547,17.89696 85.0018,25.02747 z"
         style="fill:none;stroke:#009e00;stroke-opacity:1;display:inline;filter:url(#filter6817-0)" />
      <path
         inkscape:connector-curvature="0"
         style="fill:url(#radialGradient4197);fill-opacity:1;stroke:#000000;stroke-width:0.26403329;stroke-linecap:butt;stroke-linejoin:miter;stroke-miterlimit:4;stroke-opacity:1;stroke-dasharray:1.58419971, 0.26403328;stroke-dashoffset:0;display:inline"
         d="m -84.238323,-487.18917 c 0.03,0.1947 1.2009,-0.1931 1.4569,0.3526 0.6781,1.4455 0.6558,0.4996 2.912,3.6667 11.4325,16.0484 -17.919698,18.5536 -14.3298,4.1941 1.4693,-5.8772 8.5849,-5.0031 9.9609,-8.2134 z"
         id="path8255-7-8"
         sodipodi:nodetypes="csssc" />
      <path
         inkscape:connector-curvature="0"
         sodipodi:nodetypes="cc"
         inkscape:original-d="m -83.777223,-486.13127 c 4.6756,-17.1586 -15.371398,-37.1103 0.3898,-52.2792"
         inkscape:path-effect="#path-effect5133-3"
         id="path5131-6"
         d="m -85.224455,-486.52563 2.894464,0.78872 c 1.120278,-4.69947 0.578121,-9.47614 -0.522403,-13.90774 -1.142096,-4.66567 -2.813899,-9.0908 -4.166354,-13.56848 0,0 0,0 -10e-7,0 -1.275862,-4.25982 -2.348054,-8.61933 -2.043248,-13.00597 0,0 0,0 0,0 0.145054,-2.12765 0.634582,-4.24364 1.506285,-6.20682 0.984384,-2.22013 2.445163,-4.23294 4.168289,-5.98455 -1.816294,1.6548 -3.400296,3.59787 -4.53204,5.81092 -1.000318,1.95862 -1.628488,4.10971 -1.898696,6.30786 0,0 0,0 0,0 -0.550161,4.51958 0.284462,9.09746 1.358063,13.47081 1.121062,4.61132 2.546906,9.11254 3.392057,13.65443 0.78502,4.30473 1.073037,8.7172 -0.156416,12.64082 z"
         style="fill:#000000;fill-rule:evenodd;stroke:none;display:inline" />
      <g
         transform="translate(3.1784089,-276.48391)"
         style="font-size:22.86949921px;font-style:normal;font-variant:normal;font-weight:bold;font-stretch:normal;fill:#ffffff;fill-opacity:1;stroke:#000000;stroke-width:0.26403329;stroke-miterlimit:4;stroke-opacity:1;stroke-dashoffset:0;display:inline;font-family:Gentoo;-inkscape-font-specification:Gentoo Medium"
         id="text2826-0-3-6-2-5-1">
        <path
           inkscape:connector-curvature="0"
           d="m -89.195742,-204.06262 c -0.282898,1e-5 -0.580678,0.0968 -0.89334,0.29033 -0.297786,0.17868 -0.446676,0.3499 -0.44667,0.51367 -6e-6,0.17868 0.163773,0.37968 0.491337,0.60301 0.34244,0.20845 0.655108,0.33501 0.938007,0.37967 0.07444,0.0149 0.148882,0.0223 0.223334,0.0223 0.267994,1e-5 0.483885,-0.0819 0.647672,-0.24567 0.16377,-0.17866 0.24566,-0.37221 0.245668,-0.58067 -8e-6,-0.0595 -0.0075,-0.11166 -0.02233,-0.15633 -0.193566,-0.55089 -0.588124,-0.82633 -1.183675,-0.82634 m -5.002703,1.072 c -3e-6,-0.68488 0.536001,-1.47399 1.608011,-2.36735 0.833779,-0.69977 1.77923,-1.06455 2.836354,-1.09434 0.01488,2e-5 0.02977,2e-5 0.04467,0 1.176223,2e-5 2.583232,0.62535 4.221031,1.87602 0.223323,0.16379 0.379658,0.2829 0.469003,0.35733 0.08932,0.0596 0.26799,0.20846 0.536004,0.44667 0.26799,0.23824 0.468991,0.46157 0.603004,0.67001 0.133989,0.19356 0.260545,0.44668 0.37967,0.75934 0.133988,0.31267 0.200988,0.62534 0.201001,0.938 -1.3e-5,0.35735 -0.07446,0.70724 -0.223335,1.04968 -0.134014,0.34245 -0.364793,0.69234 -0.692338,1.04967 -0.312681,0.34245 -0.595572,0.62535 -0.848673,0.84867 -0.238235,0.22334 -0.595571,0.52857 -1.072008,0.91568 -1.101795,0.90823 -2.069579,1.60801 -2.903354,2.09935 -0.83379,0.47645 -1.652685,0.71467 -2.456684,0.71467 -0.744455,0 -1.369792,-0.20845 -1.876014,-0.62534 -0.506229,-0.43178 -0.759341,-1.005 -0.759339,-1.71968 -2e-6,-0.29777 0.141443,-0.66255 0.424337,-1.09434 0.282887,-0.44666 0.595556,-0.84122 0.938006,-1.18368 0.342443,-0.35732 0.655112,-0.68488 0.938007,-0.98267 0.282886,-0.31266 0.424331,-0.50622 0.424337,-0.58067 -6e-6,-0.0893 -0.148895,-0.17122 -0.44667,-0.24567 -0.282896,-0.0893 -0.603009,-0.17866 -0.960341,-0.268 -0.34245,-0.10421 -0.662563,-0.29033 -0.96034,-0.55834 -0.282893,-0.26799 -0.424339,-0.60299 -0.424336,-1.00501"
           id="path4419" />
      </g>
      <path
         inkscape:connector-curvature="0"
         sodipodi:nodetypes="csscc"
         id="path5163-8"
         d="m -61.552324,-531.05517 c -0.3927,-1.0328 -1.261499,-2.2125 -2.110999,-3.1922 -1.102,-1.271 -2.5741,-2.5334 -3.9517,-3.5154 -4.1759,-2.9769 -12.9008,-4.6147 -16.3806,0.099 2.4905,7.3814 14.1666,4.7254 22.443299,6.6081 z"
         style="fill:#5fbf34;fill-opacity:1;stroke:#000000;stroke-width:0.13201664;stroke-linecap:butt;stroke-linejoin:miter;stroke-miterlimit:4;stroke-opacity:1;stroke-dasharray:none;display:inline" />
      <g
         transform="translate(3.1784089,-273.94118)"
         style="font-size:9.57151318px;font-style:normal;font-variant:normal;font-weight:normal;font-stretch:normal;text-align:center;line-height:100%;writing-mode:lr-tb;text-anchor:middle;fill:#000000;fill-opacity:1;stroke:none;display:inline;font-family:BalticaC;-inkscape-font-specification:BalticaC"
         id="text8365-2-9">
        <path
           inkscape:connector-curvature="0"
           d="m -113.26907,-192.42368 0,0.66043 0.0287,0.19143 -0.0574,0 -0.0766,-0.19143 c -0.47857,-0.47857 -1.46444,-0.76572 -2.22059,-0.76572 -1.5793,0 -3.48403,0.95715 -3.48403,3.26389 0,1.75158 1.18687,3.3596 3.57017,3.3596 0.96673,0 1.56016,-0.25843 1.89516,-0.44029 0.14358,-0.0766 0.27758,-0.16272 0.40201,-0.25843 l 0.335,0.59343 0.23929,0 -0.01,-2.86188 -1.82816,0 0,0.37329 1.04329,0 0,1.36872 c -0.41157,0.49772 -1.21558,0.82315 -1.9813,0.82315 -1.23473,0 -2.7566,-0.72743 -2.7566,-2.88102 0,-2.09616 1.33044,-2.93846 2.59388,-2.93846 1.18687,0 2.36417,0.59344 2.29717,1.45487 l 0.47857,0 0,-1.75158 -0.469,0"
           id="path4326" />
        <path
           inkscape:connector-curvature="0"
           d="m -111.69964,-190.44238 0,0.335 0.72743,0 0,3.75204 -0.72743,0 0,0.335 2.21102,0 0,-0.335 -0.72744,0 0,-2.34502 c 0,-0.67001 0.36372,-1.27301 0.80401,-1.27301 0.19143,0 0.42114,0.067 0.61257,0.35414 l 0.38287,-0.61258 c -0.22015,-0.28714 -0.59344,-0.31586 -0.71787,-0.31586 -0.49772,0 -0.81358,0.27758 -1.03372,0.80401 l -0.0479,0 0,-0.69872 -1.48358,0"
           id="path4328" />
        <path
           inkscape:connector-curvature="0"
           d="m -108.01506,-188.23136 c 0,1.23472 0.87101,2.31631 2.27802,2.31631 1.41658,0 2.30674,-1.10073 2.30674,-2.31631 0,-1.21558 -0.89016,-2.31631 -2.30674,-2.31631 -1.40701,0 -2.27802,1.08159 -2.27802,2.31631 m 0.84229,0 c 0,-1.62716 0.79444,-2.00045 1.4453,-2.00045 0.40201,0 1.45487,0.15315 1.45487,2.00045 0,1.8473 -1.05286,2.00045 -1.45487,2.00045 -0.65086,0 -1.4453,-0.37329 -1.4453,-2.00045"
           id="path4330" />
        <path
           inkscape:connector-curvature="0"
           d="m -103.16709,-190.44238 0,0.335 0.64129,0 1.50273,4.08704 0.43072,0 1.052864,-2.90974 0.01914,-0.21057 0.05743,0 0.01914,0.21057 1.062438,2.90974 0.421147,0 1.502727,-4.08704 0.63172,0 0,-0.335 -1.971731,0 0,0.335 0.871007,0 -1.052866,2.8906 -0.01914,0.22972 -0.05743,0 -0.01914,-0.22972 -1.129439,-3.2256 -0.287145,0 -1.119872,3.2256 -0.0287,0.22972 -0.0479,0 -0.0287,-0.22972 -1.00501,-2.8906 0.78486,0 0,-0.335 -2.23016,0"
           id="path4332" />
        <path
           inkscape:connector-curvature="0"
           d="m -90.899249,-186.81478 -0.05743,-0.22014 -1.378298,-3.07246 0.861436,0 0,-0.335 -2.268449,0 0,0.335 0.670006,0 1.818588,4.08704 -0.478576,1.14858 c -0.134001,0.31586 -0.31586,0.44029 -0.63172,0.44029 -0.172287,0 -0.31586,-0.16271 -0.402003,-0.34457 l -0.344575,0.737 c 0.220145,0.21058 0.507291,0.29672 0.746578,0.29672 0.717863,0 1.005009,-0.84229 1.273012,-1.50273 l 1.971731,-4.86233 0.746578,0 0,-0.335 -2.057875,0 0,0.335 0.880579,0 -1.26344,3.07246 -0.03829,0.22014 -0.04786,0"
           id="path4334" />
        <path
           inkscape:connector-curvature="0"
           d="m -88.105564,-188.23136 c 0,1.23472 0.871009,2.31631 2.27802,2.31631 1.416582,0 2.306734,-1.10073 2.306734,-2.31631 0,-1.21558 -0.890152,-2.31631 -2.306734,-2.31631 -1.407011,0 -2.27802,1.08159 -2.27802,2.31631 m 0.842293,0 c 0,-1.62716 0.794436,-2.00045 1.445298,-2.00045 0.402003,0 1.45487,0.15315 1.45487,2.00045 0,1.8473 -1.052867,2.00045 -1.45487,2.00045 -0.650862,0 -1.445298,-0.37329 -1.445298,-2.00045"
           id="path4336" />
        <path
           inkscape:connector-curvature="0"
           d="m -82.85559,-190.44238 0,0.335 0.727435,0 0,2.59388 c 0,0.35415 2e-6,1.61759 1.45487,1.61759 0.354146,0 0.88058,-0.0479 1.301726,-0.48815 l 0.114858,-0.21057 0.05743,0 -0.04786,0.22014 0,0.35415 1.483584,0 0,-0.335 -0.727435,0 0,-4.08704 -1.483584,0 0,0.335 0.727435,0 0,2.52688 c 0,0.89972 -0.536005,1.27301 -1.148582,1.27301 -0.976293,0 -0.976294,-0.938 -0.976294,-1.16772 l 0,-2.96717 -1.483585,0"
           id="path4338" />
        <path
           inkscape:connector-curvature="0"
           d="m -77.115074,-190.44238 0,0.335 0.727435,0 0,3.75204 -0.727435,0 0,0.335 2.21102,0 0,-0.335 -0.727435,0 0,-2.34502 c 0,-0.67001 0.363717,-1.27301 0.804007,-1.27301 0.19143,0 0.421146,0.067 0.612576,0.35414 l 0.382861,-0.61258 c -0.220145,-0.28714 -0.593434,-0.31586 -0.717864,-0.31586 -0.497718,0 -0.813578,0.27758 -1.033723,0.80401 l -0.04786,0 0,-0.69872 -1.483585,0"
           id="path4340" />
        <path
           inkscape:connector-curvature="0"
           d="m -71.205864,-188.23136 c 0,1.23472 0.871009,2.31631 2.27802,2.31631 1.416583,0 2.306735,-1.10073 2.306735,-2.31631 0,-1.21558 -0.890152,-2.31631 -2.306735,-2.31631 -1.407011,0 -2.27802,1.08159 -2.27802,2.31631 m 0.842293,0 c 0,-1.62716 0.794436,-2.00045 1.445298,-2.00045 0.402004,0 1.454871,0.15315 1.454871,2.00045 0,1.8473 -1.052867,2.00045 -1.454871,2.00045 -0.650862,0 -1.445298,-0.37329 -1.445298,-2.00045"
           id="path4342" />
        <path
           inkscape:connector-curvature="0"
           d="m -66.357889,-190.44238 0,0.335 0.641291,0 1.502728,4.08704 0.430718,0 1.052866,-2.90974 0.01914,-0.21057 0.05743,0 0.01914,0.21057 1.062437,2.90974 0.421147,0 1.502728,-4.08704 0.63172,0 0,-0.335 -1.971732,0 0,0.335 0.871008,0 -1.052867,2.8906 -0.01914,0.22972 -0.05743,0 -0.01914,-0.22972 -1.129439,-3.2256 -0.287145,0 -1.119867,3.2256 -0.02871,0.22972 -0.04786,0 -0.02871,-0.22972 -1.005009,-2.8906 0.784864,0 0,-0.335 -2.230162,0"
           id="path4344" />
        <path
           inkscape:connector-curvature="0"
           d="m -57.405834,-189.7628 0.05743,-0.22015 0,-0.45943 -1.483584,0 0,0.335 0.727435,0 0,3.75204 -0.727435,0 0,0.335 2.211019,0 0,-0.335 -0.727435,0 0,-2.23017 c 0,-0.45943 0.067,-1.51229 1.19644,-1.51229 0.928435,0 0.918865,0.82315 0.918865,1.35915 l 0,2.38331 -0.727435,0 0,0.335 2.211019,0 0,-0.335 -0.727435,0 0,-2.59388 c 0,-0.55515 -0.114859,-1.59845 -1.45487,-1.59845 -0.536004,0 -1.215582,0.22972 -1.416584,0.79444 l -0.05743,-0.01"
           id="path4346" />
        <path
           inkscape:connector-curvature="0"
           d="m -101.15139,-179.05314 c 2.220591,0.067 3.034172,-0.7753 3.034172,-2.01959 0,-1.87602 -1.895162,-1.93345 -2.756592,-1.93345 l -2.39288,0 0,0.53601 0.74658,0 0,5.33133 -0.74658,0 0,0.53601 2.88102,0 0,-0.53601 -0.76572,0 0,-1.9143 m 0,-3.41703 c 0.43072,-0.0287 1.69416,-0.01 1.69416,1.34001 0,1.5123 -1.11987,1.6463 -1.69416,1.59844 l 0,-2.93845"
           style="font-weight:bold"
           id="path4348" />
        <path
           inkscape:connector-curvature="0"
           d="m -96.226246,-178.85214 c 0,-1.89516 0.746579,-1.96216 0.966723,-1.96216 0.938008,0 0.976295,1.54101 0.976295,1.96216 0,1.39744 -0.421148,1.96216 -0.976295,1.96216 -0.392431,0 -0.966723,-0.27758 -0.966723,-1.96216 m -1.340011,0 c 0,1.28258 1.033724,2.36416 2.306734,2.36416 1.27301,0 2.316306,-1.09115 2.316306,-2.36416 0,-1.29215 -1.043296,-2.36416 -2.316306,-2.36416 -1.27301,0 -2.306734,1.06244 -2.306734,2.36416"
           style="font-weight:bold"
           id="path4350" />
        <path
           inkscape:connector-curvature="0"
           d="m -90.420674,-180.38358 0.04786,-0.17229 0,-0.54558 -1.799444,0 0,0.47858 0.536004,0 0,3.54146 -0.536004,0 0,0.47858 2.412021,0 0,-0.47858 -0.612577,0 0,-2.14402 c 0,-0.34457 -0.0096,-1.23472 0.516862,-1.23472 0.201001,0 0.478576,0.0766 0.536005,0.45943 l 0.134001,0 0.478575,-1.02415 c -0.114858,-0.0766 -0.38286,-0.18186 -0.57429,-0.18186 -0.449861,0 -0.899723,0.39243 -1.091153,0.82315 l -0.04786,0"
           style="font-weight:bold"
           id="path4352" />
        <path
           inkscape:connector-curvature="0"
           d="m -87.906058,-182.3936 0,1.29215 -0.593434,0 0,0.47858 0.593434,0 0,2.90974 c 0,0.44029 0.07657,1.21558 1.100724,1.21558 0.325431,0 1.005009,-0.0766 1.234725,-0.77529 l -0.516862,-0.335 c -0.01914,0.27757 -0.067,0.63172 -0.335003,0.63172 -0.239287,0 -0.220145,-0.25843 -0.220145,-0.56472 l 0,-3.08203 0.784865,0 0,-0.47858 -0.784865,0 0,-1.74201 -1.263439,0.44986"
           style="font-weight:bold"
           id="path4354" />
        <path
           inkscape:connector-curvature="0"
           d="m -80.92708,-177.08141 0,-2.9576 c 0,-0.35414 -0.05743,-1.17729 -1.904731,-1.17729 -0.804006,0 -1.359155,0.15314 -1.837731,0.44029 l 0.507291,0.59343 c 0.344574,-0.43072 0.871008,-0.59343 1.349583,-0.59343 0.449861,0 0.622148,0.30628 0.622148,0.737 l 0,0.94758 c -0.268002,-0.27757 -0.641292,-0.47857 -1.234725,-0.47857 -0.899721,0 -1.588871,0.67958 -1.588871,1.53144 0,0.86143 0.698721,1.54101 1.588871,1.54101 0.593433,0 0.966723,-0.201 1.234725,-0.47857 l 0,0.37329 1.809016,0 0,-0.47858 -0.545576,0 m -1.26344,-0.35415 c -0.124429,0.22015 -0.344574,0.38286 -0.63172,0.38286 -0.306288,0 -0.880579,-0.201 -0.880579,-0.98586 0,-0.77529 0.56472,-0.9763 0.880579,-0.9763 0.287146,0 0.507291,0.16272 0.63172,0.38287 l 0,1.19643"
           style="font-weight:bold"
           id="path4356" />
        <path
           inkscape:connector-curvature="0"
           d="m -76.21909,-181.10145 -0.210574,0.65087 c -0.25843,-0.73701 -1.062438,-0.76572 -1.253868,-0.76572 -1.005008,0 -1.990875,0.68915 -1.990875,2.28759 0,1.56972 0.823152,2.43116 1.990875,2.43116 0.641291,0 1.024152,-0.28714 1.186868,-0.67957 l 0.05743,0 -0.02872,0.134 0,0.52643 c 0,0.85186 -0.12443,1.6463 -1.081581,1.6463 -0.670005,0 -1.024152,-0.56472 -1.129438,-1.07201 l -0.134002,0 -0.555147,0.89015 c 0.526432,0.50729 1.07201,0.58386 1.483584,0.58386 2.507734,0 2.660881,-1.42615 2.660881,-2.26845 l 0,-3.88603 0.536005,0 0,-0.47858 -1.531442,0 m -0.24886,2.24931 c 0,0.16272 0,0.335 0,0.49772 -0.0096,1.00501 -0.449861,1.27301 -0.851864,1.27301 -0.363718,0 -0.985866,-0.19143 -0.985866,-1.77073 0,-1.41658 0.488147,-1.77073 0.985866,-1.77073 0.392431,0 0.851864,0.25843 0.851864,1.27301 0,0.16272 0,0.335 0,0.49772"
           style="font-weight:bold"
           id="path4358" />
        <path
           inkscape:connector-curvature="0"
           d="m -69.742916,-178.80428 c 0.01914,-0.14357 0.0096,-0.27758 0.0096,-0.41158 0,-1.00501 -0.756151,-2.00044 -2.08659,-2.00044 -1.234724,0 -2.249306,0.88058 -2.249306,2.29716 0,1.3783 0.966724,2.42159 2.297163,2.42159 0.851864,0 1.407013,-0.24886 2.01959,-0.93801 l -0.402004,-0.41157 c -0.38286,0.64129 -0.82315,0.86144 -1.148581,0.86144 -0.670006,0 -1.426156,-0.41158 -1.426156,-1.81859 l 2.986312,0 m -2.986312,-0.48815 c -0.0096,-1.15815 0.469005,-1.52187 0.899722,-1.52187 0.363717,0 0.899723,0.25843 0.842294,1.52187 l -1.742016,0"
           style="font-weight:bold"
           id="path4360" />
        <path
           inkscape:connector-curvature="0"
           d="m -94.026443,-172.40008 0,1.10073 -0.727435,0 0,0.335 0.727435,0 0,3.0246 c 0,0.41157 0.02872,1.16772 1.100724,1.16772 0.31586,0 0.612577,-0.0574 1.014581,-0.52643 l -0.382861,-0.31586 c -0.201001,0.48815 -0.469004,0.52643 -0.555148,0.52643 -0.392431,0 -0.421146,-0.39243 -0.421146,-0.77529 l 0,-3.10117 1.024152,0 0,-0.335 -1.024152,0 0,-1.63673 -0.75615,0.536"
           id="path4362" />
        <path
           inkscape:connector-curvature="0"
           d="m -91.45365,-171.29935 0,0.335 0.727435,0 0,3.75203 -0.727435,0 0,0.33501 2.21102,0 0,-0.33501 -0.727435,0 0,-2.34502 c 0,-0.67 0.363717,-1.27301 0.804007,-1.27301 0.19143,0 0.421146,0.067 0.612576,0.35415 l 0.382861,-0.61258 c -0.220145,-0.28714 -0.593434,-0.31586 -0.717863,-0.31586 -0.497719,0 -0.813579,0.27758 -1.033724,0.80401 l -0.04786,0 0,-0.69872 -1.483585,0"
           id="path4364" />
        <path
           inkscape:connector-curvature="0"
           d="m -83.528886,-168.99262 c 0.07657,-1.68458 -1.014581,-2.41202 -2.105733,-2.41202 -1.014579,0 -2.134447,0.72744 -2.134447,2.29716 0,1.6463 1.206012,2.33545 2.325878,2.33545 0.679577,0 1.464442,-0.29671 1.914302,-0.82315 l -0.248859,-0.25843 c -0.50729,0.50729 -0.995438,0.71787 -1.608014,0.71787 -1.39744,0 -1.531442,-1.35916 -1.531442,-1.85688 l 3.388315,0 m -3.388315,-0.30629 c -0.03829,-1.005 0.497719,-1.80901 1.253868,-1.80901 0.727434,0 1.292154,0.67 1.292154,1.80901 l -2.546022,0"
           id="path4366" />
        <path
           inkscape:connector-curvature="0"
           d="m -78.481408,-168.99262 c 0.07657,-1.68458 -1.014581,-2.41202 -2.105733,-2.41202 -1.014579,0 -2.134447,0.72744 -2.134447,2.29716 0,1.6463 1.206012,2.33545 2.325877,2.33545 0.679577,0 1.464442,-0.29671 1.914303,-0.82315 l -0.248859,-0.25843 c -0.50729,0.50729 -0.995438,0.71787 -1.608014,0.71787 -1.39744,0 -1.531443,-1.35916 -1.531443,-1.85688 l 3.388316,0 m -3.388316,-0.30629 c -0.03829,-1.005 0.49772,-1.80901 1.253869,-1.80901 0.727434,0 1.292154,0.67 1.292154,1.80901 l -2.546023,0"
           id="path4368" />
      </g>
      <path
         inkscape:connector-curvature="0"
         transform="matrix(0.26403328,0,0,0.26403328,-51.973221,-637.12157)"
         style="opacity:0.49253732;fill:url(#linearGradient4141);fill-opacity:1;stroke:none;display:inline;filter:url(#filter6801-7)"
         d="m -36.280078,401.62207 c -2.5628,-6.3108 -4.7778,-8.3796 -7.995,-12.09 -4.174,-4.8139 -9.7492,-9.5952 -14.9667,-13.3145 -15.8158,-11.2747 -48.860602,-17.4777 -62.040102,0.377 9.4327,27.9564 53.654702,17.897 85.001802,25.0275 z"
         id="path6763-8"
         sodipodi:nodetypes="csscc" />
      <path
         inkscape:connector-curvature="0"
         sodipodi:nodetypes="cc"
         inkscape:original-d="m -83.288623,-537.76617 c 6.4894,-2.0762 17.3614,2.3377 21.223699,6.294"
         inkscape:path-effect="#path-effect5216-7"
         id="path5214-4"
         d="m -83.334331,-537.90904 0.09142,0.28574 c 3.689821,-1.21486 7.790829,-0.40579 11.528271,0.81098 1e-6,0 1e-6,0 1e-6,0 1.935826,0.63182 3.818365,1.43504 5.600598,2.42422 0,0 0,0 10e-7,0 1.458564,0.80977 2.874883,1.72874 4.04912,2.91593 -1.158612,-1.20244 -2.566238,-2.14309 -4.016957,-2.973 -1.773088,-1.01462 -3.651171,-1.84547 -5.586695,-2.50523 -10e-7,0 -10e-7,0 -10e-7,0 -3.731191,-1.27494 -7.8567,-2.14295 -11.665754,-0.95864 z"
         style="fill:#000000;fill-rule:evenodd;stroke:none;display:inline" />
      <path
         inkscape:connector-curvature="0"
         sodipodi:nodetypes="cc"
         inkscape:original-d="m -75.573223,-537.89577 c 1.2457,1.2328 1.6181,4.322 1.5718,5.3245"
         inkscape:path-effect="#path-effect6086-3"
         id="path6084-3"
         d="m -75.502881,-537.96685 -0.140684,0.14216 c 0.718115,0.67886 1.047284,1.69917 1.296025,2.68787 0.20923,0.83911 0.370812,1.69924 0.346117,2.56555 0.05526,-0.8649 -0.07573,-1.73677 -0.256683,-2.58622 -0.211231,-1.00187 -0.510756,-2.05112 -1.244775,-2.80936 z"
         style="fill:#000000;fill-rule:evenodd;stroke:none;display:inline" />
      <path
         inkscape:connector-curvature="0"
         sodipodi:nodetypes="cc"
         inkscape:original-d="m -72.522723,-537.13727 c 1.0075,0.8943 1.4125,3.4346 1.2765,4.5215"
         inkscape:path-effect="#path-effect6090-9"
         id="path6088-1"
         d="m -72.456339,-537.21206 -0.132768,0.14958 c 0.602809,0.50479 0.877133,1.33127 1.085978,2.12504 0.19626,0.75675 0.33813,1.54153 0.256906,2.32167 0.113503,-0.7761 0.0051,-1.57531 -0.161969,-2.34428 -0.172377,-0.80725 -0.420123,-1.66426 -1.048147,-2.25201 z"
         style="fill:#000000;fill-rule:evenodd;stroke:none;display:inline" />
      <path
         inkscape:connector-curvature="0"
         sodipodi:nodetypes="cc"
         inkscape:original-d="m -69.571623,-536.09647 c 0.5491,0.8958 1.0319,2.1817 0.8825,3.3456"
         inkscape:path-effect="#path-effect6094-6"
         id="path6092-4"
         d="m -69.50768,-536.13567 -0.127886,0.0784 c 0.627286,0.97963 1.071131,2.13866 0.946443,3.3064 0.174281,-1.16137 -0.218653,-2.3624 -0.818557,-3.3848 z"
         style="fill:#000000;fill-rule:evenodd;stroke:none;display:inline" />
      <path
         inkscape:connector-curvature="0"
         sodipodi:nodetypes="cc"
         inkscape:original-d="m -67.057323,-534.92797 c 0.4878,0.6973 0.5751,1.5521 0.6456,2.3919"
         inkscape:path-effect="#path-effect6098-5"
         id="path6096-9-2"
         d="m -67.016353,-534.95663 -0.08194,0.0573 c 0.485433,0.66031 0.600015,1.53143 0.68657,2.36324 -0.05334,-0.8346 -0.131486,-1.71061 -0.60463,-2.42056 z"
         style="fill:#000000;fill-rule:evenodd;stroke:none;display:inline" />
      <path
         inkscape:connector-curvature="0"
         sodipodi:nodetypes="cc"
         inkscape:original-d="m -78.455123,-538.22057 c 0.8904,1.1749 1.2555,3.1699 1.1254,4.5239"
         inkscape:path-effect="#path-effect6102-6"
         id="path6100-2"
         d="m -78.437808,-538.3618 -0.157124,0.12419 c 1.011872,1.22242 1.386721,2.92781 1.265209,4.54094 0.187873,-1.60675 -0.111339,-3.3463 -1.108085,-4.66513 z"
         style="fill:#000000;fill-rule:evenodd;stroke:none;display:inline" />
      <path
         inkscape:connector-curvature="0"
         sodipodi:nodetypes="cc"
         inkscape:original-d="m -81.213723,-538.12037 c 0.728,1.1789 0.8667,2.1262 0.9184,3.4228"
         inkscape:path-effect="#path-effect6106-7"
         id="path6104-0"
         d="m -81.128639,-538.17291 -0.170168,0.10508 c 0.646885,0.97959 0.922476,2.17529 1.003484,3.37026 -0.01439,-1.19763 -0.222088,-2.41758 -0.833316,-3.47534 z"
         style="fill:#000000;fill-rule:evenodd;stroke:none;display:inline" />
      <path
         inkscape:connector-curvature="0"
         style="fill:#000000;fill-rule:evenodd;stroke:none;display:inline"
         d="m -74.461518,-537.66975 0.16759,0.10916 c 0.531765,-0.8708 1.114454,-1.76233 2.017005,-2.24448 -0.932031,0.42236 -1.600053,1.29215 -2.184595,2.13532 z"
         id="path6124-6"
         inkscape:path-effect="#path-effect6136-4"
         inkscape:original-d="m -74.377723,-537.61517 c 0.7318,-1.1236 1.4189,-1.8537 2.1008,-2.1899"
         sodipodi:nodetypes="cc" />
      <path
         inkscape:connector-curvature="0"
         style="fill:#000000;fill-rule:evenodd;stroke:none;display:inline"
         d="m -71.789212,-536.92571 0.160978,0.11868 c 0.538133,-0.77954 1.147024,-1.56444 2.027411,-1.92684 -0.90359,0.2999 -1.597253,1.05604 -2.188389,1.80816 z"
         id="path6126-8"
         inkscape:path-effect="#path-effect6138-55"
         inkscape:original-d="m -71.708723,-536.86637 c 0.6755,-0.9162 1.3572,-1.5888 2.1079,-1.8675"
         sodipodi:nodetypes="cc" />
      <path
         inkscape:connector-curvature="0"
         style="fill:#000000;fill-rule:evenodd;stroke:none;display:inline"
         d="m -68.921589,-535.86541 0.07453,0.0667 c 0.485377,-0.5605 1.019161,-1.20253 1.760134,-1.22724 -0.741334,-0.009 -1.331731,0.61619 -1.834666,1.16056 z"
         id="path6128-9"
         inkscape:path-effect="#path-effect6140-1"
         inkscape:original-d="m -68.884323,-535.83207 c 0.8013,-0.8958 1.2351,-1.1878 1.7974,-1.1939"
         sodipodi:nodetypes="cc" />
      <path
         inkscape:connector-curvature="0"
         style="fill:#000000;fill-rule:evenodd;stroke:none;display:inline"
         d="m -66.316889,-534.51753 -0.06847,-0.0729 c 0.37338,-0.32776 0.846529,-0.52897 1.327734,-0.59696 -0.475412,0.10082 -0.924645,0.33251 -1.259266,0.66984 z"
         id="path6130-2"
         inkscape:path-effect="#path-effect6142-6"
         inkscape:original-d="m -66.351123,-534.55397 c 0.2772,-0.2604 0.8056,-0.5473 1.2935,-0.6334"
         sodipodi:nodetypes="cc" />
      <path
         inkscape:connector-curvature="0"
         style="fill:#000000;fill-rule:evenodd;stroke:none;display:inline"
         d="m -77.424059,-538.17304 0.187869,0.0705 c 0.286533,-0.86881 0.927145,-1.59463 1.599367,-2.2496 -0.717021,0.6056 -1.41277,1.28581 -1.787236,2.17913 z"
         id="path6132-6"
         inkscape:path-effect="#path-effect6144-0"
         inkscape:original-d="m -77.293623,-538.23107 c 0.2297,-0.5634 0.6581,-1.2149 1.6568,-2.1211"
         sodipodi:nodetypes="cc" />
      <path
         inkscape:connector-curvature="0"
         style="fill:#000000;fill-rule:evenodd;stroke:none;display:inline"
         d="m -80.223268,-538.34867 0.18269,0.0814 c 0.29417,-0.72971 0.770186,-1.45536 1.482255,-1.8253 -0.74032,0.30955 -1.306579,1.00892 -1.664945,1.7439 z"
         id="path6134-6"
         inkscape:path-effect="#path-effect6146-32"
         inkscape:original-d="m -80.131923,-538.30797 c 0.316,-0.7093 1.1367,-1.5802 1.5736,-1.7846"
         sodipodi:nodetypes="cc" />
      <path
         inkscape:connector-curvature="0"
         sodipodi:nodetypes="cc"
         inkscape:original-d="m -118.66992,-479.60637 c 15.9965,-9.6693 53.829297,-8.1783 68.653196,0.7352"
         inkscape:path-effect="#path-effect5611-44-6"
         id="path5609-4-4"
         d="m -118.66992,-479.60637 c -0.0229,-0.0378 0.30052,-0.29147 0.95152,-0.69688 0.651,-0.40541 1.63223,-0.95869 2.93723,-1.55402 1.305,-0.59533 2.93619,-1.22893 4.86045,-1.81237 1.92426,-0.58345 4.14294,-1.11425 6.56742,-1.56927 2.71787,-0.51231 5.718729,-0.92333 8.924275,-1.17993 3.205546,-0.25661 6.61549,-0.35869 10.137158,-0.2961 0.133091,0.002 0.265999,0.005 0.39872,0.008 7.163971,0.15031 13.806262,0.9956 19.230884,2.19454 2.320051,0.51094 4.439983,1.07088 6.278729,1.66537 1.838746,0.59449 3.397575,1.22117 4.64553,1.80281 1.247954,0.58165 2.18722,1.11475 2.810541,1.50429 0.623322,0.38954 0.933033,0.63192 0.910739,0.669 -0.02229,0.0371 -0.374911,-0.13312 -1.031594,-0.45002 -0.656682,-0.3169 -1.619625,-0.77681 -2.879829,-1.28612 -1.260204,-0.50931 -2.819918,-1.06455 -4.6531,-1.59406 -1.833183,-0.52952 -3.941325,-1.03111 -6.252711,-1.49833 -5.395084,-1.08621 -11.973904,-1.85974 -19.080089,-2.00776 -0.131654,-0.003 -0.263487,-0.005 -0.395495,-0.008 -3.493027,-0.0614 -6.871069,0.025 -10.047029,0.25212 -3.175959,0.22707 -6.149679,0.59472 -8.848019,1.05343 -2.41007,0.41171 -4.61196,0.8834 -6.5267,1.40057 -1.91474,0.51718 -3.54391,1.07753 -4.8594,1.5987 -1.3155,0.52117 -2.31979,0.99944 -3.00439,1.33058 -0.68459,0.33114 -1.05196,0.5111 -1.07484,0.47325 z"
         style="fill:#000000;fill-rule:evenodd;stroke:none;display:inline" />
      <g
         id="g8950-0-1"
         style="display:inline"
         transform="matrix(0.4548,-0.06461897,0.06461897,0.4548,-312.13083,-209.04507)">
        <path
           inkscape:connector-curvature="0"
           style="fill:#828282;fill-opacity:1;stroke:#000000;stroke-width:0.64424235;stroke-linecap:round;stroke-linejoin:round;stroke-miterlimit:4;stroke-opacity:1;stroke-dasharray:none;display:inline"
           d="m 498.18535,-554.04911 c -1.69081,3.93047 9.2187,12.1511 13.70226,14.13435 1.23587,0.54669 2.9845,2.36938 4.03359,4.4643 1.15164,2.29975 2.17064,5.10502 1.86944,6.80673 -0.15729,0.88874 -0.33552,1.9174 -0.33552,1.9174 l 3.7389,0.11983 -0.31159,-2.06119 c 0.0552,0.43402 -1.81495,-4.09838 -2.08515,-6.97449 -0.071,-0.7557 0.005,-2.19626 0.31155,-3.2356 0.2262,-0.76777 0.24532,-0.77057 1.10251,-2.1331 0.53994,-0.85827 0.88682,-4.12238 0.88682,-4.12238"
           id="path3703-6-0"
           sodipodi:nodetypes="cssscccsasa" />
        <path
           inkscape:connector-curvature="0"
           style="fill:#828282;fill-opacity:1;stroke:#000000;stroke-width:0.64424235;stroke-linecap:round;stroke-linejoin:round;stroke-miterlimit:4;stroke-opacity:1;stroke-dasharray:none;display:inline"
           d="m 546.45757,-554.08469 c -0.31933,6.80719 -1.04817,10.897 -1.91737,14.57215 -0.58896,2.47454 0.1692,7.4248 1.54105,10.14221 0.33934,0.67218 0.38765,1.70865 0.46206,2.30844 l -3.71815,0 c -0.10101,-0.63223 -0.86197,-1.42445 -0.66867,-2.07711 0.74844,-2.52691 -1.84771,-5.4577 -0.98188,-8.18091 -0.48719,-6.95393 -0.14178,-9.96937 0.38349,-12.36716 2.34099,-1.41724 2.49261,-4.54665 3.55731,-6.21914 l 1.34216,1.82152 z"
           id="path3789-4-5"
           sodipodi:nodetypes="ccsccscccc" />
        <path
           inkscape:connector-curvature="0"
           style="fill:#ffffff;fill-opacity:1;stroke:#000000;stroke-width:0.85898978;stroke-linecap:butt;stroke-linejoin:miter;stroke-miterlimit:4;stroke-opacity:1;stroke-dasharray:none;display:inline"
           d="m 513.83504,-551.19832 c 0.59353,0.20717 -0.64327,9.91307 0.26067,10.03838 5.20832,0.72203 11.98609,0.20443 16.5742,-1.58521 1.34123,-0.52317 11.49287,-4.71814 15.47505,-9.21599 0.88094,-0.99502 -2.26433,-14.43122 -3.59371,-19.67568 -7.00459,2.52307 -14.99212,3.88151 -16.02207,5.39204"
           id="path3797-3-1"
           sodipodi:nodetypes="cssscc" />
        <path
           transform="matrix(0.46713882,0,0,0.37870734,265.48926,-673.729)"
           d="m 620.6573,393.79898 c 0,4.83112 -29.65273,8.74752 -66.23121,8.74752 -36.57849,0 -66.23121,-3.9164 -66.23121,-8.74752 0,-4.83112 29.65272,-8.74752 66.23121,-8.74752 36.57848,0 66.23121,3.9164 66.23121,8.74752 z"
           sodipodi:ry="8.7475185"
           sodipodi:rx="66.231209"
           sodipodi:cy="393.79898"
           sodipodi:cx="554.42609"
           id="path4735-8-3-1"
           style="opacity:0.43283584;color:#000000;fill:#000000;fill-opacity:1;stroke:none;stroke-width:2;marker:none;visibility:visible;display:inline;overflow:visible;filter:url(#filter4745-33-0-8-3);enable-background:accumulate"
           sodipodi:type="arc" />
        <path
           inkscape:connector-curvature="0"
           style="fill:#ffffff;fill-opacity:1;stroke:#000000;stroke-width:0.64424235;stroke-linecap:round;stroke-linejoin:round;stroke-miterlimit:4;stroke-opacity:1;stroke-dasharray:none;display:inline"
           d="m 517.3926,-550.97488 c 0.0777,2.91968 -0.68349,7.25245 -2.57982,9.79232 -1.13513,1.62901 -2.87567,3.29657 -4.56247,4.30048 -0.744,2.27227 2.14381,5.88006 2.43282,11.29677 l 0.25154,1.74147 c -1.82152,-0.032 -2.25292,-0.0639 -4.07445,-0.0959 0.0761,-1.41663 0.47177,-0.83722 0.28243,-2.09412 0.35553,-5.25692 -3.42178,-11.25415 -6.65775,-14.39541 0.41543,-1.40609 1.90698,-2.92872 1.0306,-3.97859 -2.72611,-3.26573 -4.3426,-5.20928 -4.86471,-6.62123 -0.56979,-1.54096 1.69532,-9.88396 2.87543,-11.13856"
           id="path3700-6-0"
           sodipodi:nodetypes="ccccccccsss" />
        <path
           inkscape:connector-curvature="0"
           style="fill:#000000;fill-opacity:1;stroke:#000000;stroke-width:0.53686857;stroke-linecap:butt;stroke-linejoin:miter;stroke-miterlimit:4;stroke-opacity:1;stroke-dasharray:none;display:inline"
           d="m 541.26407,-571.5269 c -0.56848,0.111 -13.3859,3.66517 -17.97651,4.28301 -4.60137,0.61928 -7.52294,0.58001 -12.32227,-0.34472 -4.7867,-1.43334 -7.58532,-6.53953 -10.20921,0.76171 -1.90899,5.01278 -1.73231,6.50804 -1.83598,7.36145 -1.59623,13.13846 -20.06814,15.35795 -21.96413,-0.54887 1.37496,-1.63565 2.75584,-4.64926 1.74003,-6.45714 -0.69514,-0.36452 -2.66423,1.68018 -2.91446,2.47231 -0.61814,1.9568 -0.25587,2.98265 0.9084,4.05319 -0.14265,7.6727 10.3398,17.88273 18.3315,11.02334 2.83367,-2.43217 5.08124,-6.87447 6.32708,-12.40012 1.07353,-1.34292 3.82034,1.45395 3.25526,2.98281 -0.38092,0.95796 -1.16769,1.83045 -1.22412,2.86852 -0.0995,1.83085 0.30283,3.96545 1.59784,5.26348 1.1566,1.1593 3.06286,1.5346 4.6976,1.43803 2.0568,-0.12151 3.62545,-2.84026 5.6563,-2.4926 1.42615,0.24414 1.76021,2.62019 3.16369,2.97195 1.66927,0.41839 3.72009,-0.17556 4.98522,-1.34217 1.67194,-1.54177 1.79506,-3.8737 2.92401,-5.84804 1.2075,-2.11173 3.99894,-2.28361 4.17294,-6.04407 0.0663,-1.43495 -2.13918,-2.29857 -2.01588,-4.50156 0.2135,-0.78516 0.76553,-1.09072 1.18605,-1.32497 0.90895,-0.73127 4.04073,-2.56001 11.51664,-4.17554 z"
           id="path3774-9-8"
           sodipodi:nodetypes="csccsccscsccssssssssccc" />
        <path
           inkscape:connector-curvature="0"
           style="fill:#ffffff;fill-opacity:1;stroke:#000000;stroke-width:0.64424235;stroke-linecap:round;stroke-linejoin:miter;stroke-miterlimit:4;stroke-opacity:1;stroke-dasharray:none;display:inline"
           d="m 533.38004,-554.71378 c -0.0894,1.16795 0.10501,2.62496 0.3835,3.7389 0.31121,1.24486 0.99234,4.0989 1.2463,5.36868 0.62844,3.14219 -0.0112,9.66042 1.15043,11.98368 1.02368,2.04733 1.85524,3.58615 2.39674,5.75217 0.16066,0.64259 0.39938,2.89197 0.76695,3.25955 0.2711,0.27109 1.60928,-0.19175 2.30088,-0.19175 0.14908,0 2.19465,0.24723 2.20499,0.0959 0.1019,-1.49205 -0.75657,-2.88513 -1.23172,-3.67616 -4.07959,-6.79169 -0.77053,-11.73122 -0.30219,-22.68791"
           id="path3795-0-5"
           sodipodi:nodetypes="cssssssssc" />
        <g
           style="display:inline"
           id="g23594-4-0"
           transform="matrix(0.56348571,0,0,0.56348571,8.448491,-782.45547)">
          <path
             inkscape:connector-curvature="0"
             sodipodi:nodetypes="ccccc"
             id="rect23591-8-6"
             d="m 946.75,56.969482 c 9.82824,-1.69109 18.31445,-7.072763 31.875,1.5 l 6.875,40.374998 -24.5,9.5 C 947.73377,90.414601 952.30797,75.220538 946.75,56.969482 z"
             style="color:#000000;fill:#ffffff;fill-opacity:1;fill-rule:nonzero;stroke:none;stroke-width:0.70866144;marker:none;visibility:visible;display:inline;overflow:visible;enable-background:accumulate"
             transform="translate(0,308.2677)" />
          <path
             inkscape:connector-curvature="0"
             style="fill:#000000;fill-opacity:1"
             d="m 968.51587,425.33458 c -2.20191,-0.42697 -3.83838,-1.44214 -6.28953,-3.90164 -2.80959,-2.81916 -5.16277,-6.24182 -7.4926,-10.89784 -2.89776,-5.79103 -3.97649,-10.22087 -5.36924,-22.04915 -1.04451,-8.87088 -1.76767,-12.50799 -3.24988,-16.34536 -0.49186,-1.27342 -0.584,-1.3537 -1.11773,-0.97398 -0.16843,0.11984 -0.72161,0.42698 -1.22926,0.68255 -4.23457,2.13176 -9.57438,2.83058 -14.13117,1.84934 -1.78553,-0.38449 -3.58844,-1.12105 -4.84825,-1.9807 -0.58529,-0.39938 -1.73065,-1.44785 -1.73065,-1.58424 0,-0.21038 3.27343,-3.97787 4.60477,-5.29978 1.62435,-1.61284 2.73065,-2.42662 4.32678,-3.18271 1.73167,-0.82031 2.5931,-1.00828 4.62519,-1.00927 1.85019,-5.8e-4 2.20237,0.0543 5.8265,0.91342 1.60059,0.37942 1.96397,0.42538 3.46129,0.43788 1.46993,0.0123 1.76642,-0.0184 2.44302,-0.25214 0.86881,-0.30022 0.94748,-0.36955 1.18577,-1.04493 0.5068,-1.43643 0.7154,-3.21858 0.93366,-7.97678 0.18786,-4.09581 0.3653,-5.84229 0.74396,-7.32282 0.26266,-1.02702 0.85254,-2.3838 1.15562,-2.65808 0.18651,-0.16879 0.23718,-0.14157 0.68652,0.36892 0.65506,0.74419 1.21536,1.77526 1.69777,3.12431 0.51419,1.43794 0.72008,2.32199 1.36319,5.8531 0.5867,3.2214 1.14288,5.42299 1.65567,6.55393 l 0.34278,0.756 2.63578,10e-4 c 1.44969,5.8e-4 3.98569,0.0608 5.63558,0.13358 3.54689,0.15654 5.22506,0.0827 5.64602,-0.24843 0.40092,-0.31535 1.25722,-1.73167 1.66525,-2.75426 1.07074,-2.68348 1.54949,-6.5881 1.29623,-10.57201 -0.14888,-2.34214 -0.49507,-4.90056 -0.87671,-6.4792 -0.32436,-1.34167 -0.24042,-1.41083 0.8059,-0.6642 5.19843,3.70953 7.57215,12.60266 5.18936,19.44198 -0.45601,1.30886 -0.67276,1.78039 -1.29114,2.80873 -0.22165,0.3686 -0.37025,0.70292 -0.33022,0.74296 0.13047,0.13047 1.71396,-0.44957 2.89424,-1.06016 0.63457,-0.32828 2.11427,-1.22049 3.28823,-1.9827 2.62414,-1.70374 3.22937,-2.06568 4.59244,-2.74632 3.55709,-1.77622 7.05089,-2.03573 10.86799,-0.80727 2.0634,0.66407 3.6439,1.5827 4.652,2.70399 0.7739,0.86073 0.9438,1.2863 0.9438,2.36394 0,0.77773 -0.051,1.02673 -0.3236,1.58199 -1.413,2.87731 -6.9839,5.51852 -13.4827,6.39228 -2.72198,0.36596 -6.62007,0.2005 -8.48265,-0.36006 -0.30767,-0.0926 -0.59458,-0.12193 -0.65004,-0.0665 -0.0554,0.0554 0.362,2.12914 0.94585,4.69824 3.08315,13.56676 4.26452,20.77644 4.74265,28.94338 0.3546,6.05697 -0.1384,12.4613 -1.3056,16.96033 l -0.14967,0.57689 -1.29129,0.18852 c -2.44037,0.35629 -3.97042,0.96153 -8.27021,3.27147 -3.09933,1.66503 -4.06309,2.10449 -5.59575,2.55157 -0.95303,0.278 -2.70059,0.44514 -3.34592,0.32001 z m -6.48437,-10.50176 c 0.36183,-0.23124 1.85201,-1.26428 3.31152,-2.29563 3.14637,-2.22336 4.33628,-2.96122 6.3457,-3.93492 3.42529,-1.65977 6.93326,-2.35537 10.98961,-2.1791 1.16765,0.0507 1.75948,0.0369 1.75948,-0.0411 0,-0.0646 -0.20688,-1.45686 -0.45973,-3.0938 -0.43332,-2.80529 -0.89213,-6.17113 -2.13569,-15.66767 -0.64534,-4.92815 -1.30861,-9.31827 -1.91748,-12.69141 -0.57959,-3.21108 -1.5702,-7.6533 -1.7792,-7.9786 -0.27968,-0.4353 -2.08117,-1.70036 -3.24279,-2.27718 -3.26852,-1.62303 -7.4041,-2.36061 -12.50082,-2.22953 -3.62304,0.0932 -6.93598,0.58873 -10.21199,1.52749 -2.11043,0.60476 -4.67275,1.61202 -4.67275,1.83688 0,0.0254 0.20514,0.42657 0.45585,0.89151 0.59832,1.10953 1.61097,3.65093 2.06297,5.17734 1.14103,3.85333 1.82235,7.83077 2.78575,16.26269 0.8422,7.37106 1.31358,10.62588 1.9787,13.66249 1.02373,4.67379 2.28903,7.95837 4.11919,10.69295 0.79466,1.18738 2.12902,2.75801 2.34311,2.75801 0.0609,0 0.40674,-0.18919 0.76857,-0.42044 z m -5.16865,-27.16085 c -0.4502,-0.19001 -1.03115,-0.8045 -1.34928,-1.42718 -0.58872,-1.15229 -0.1959,-2.57211 1.02416,-3.70166 1.99076,-1.84309 4.57024,-1.88666 5.54416,-0.0937 0.36999,0.68114 0.61436,2.08854 0.49772,2.86641 -0.0645,0.43024 -0.13612,0.5498 -0.38616,0.64486 -0.16882,0.0642 -0.75489,0.37522 -1.30236,0.69119 -0.54748,0.31597 -1.26191,0.67575 -1.58764,0.79952 -0.71051,0.26997 -2.03902,0.39001 -2.4406,0.22052 z m 15.08293,-9.49654 c -0.0852,-0.0721 -0.29462,-0.32224 -0.46546,-0.55592 -0.17085,-0.23367 -0.40971,-0.4563 -0.5308,-0.49473 -0.31248,-0.0992 -0.34605,-0.27111 -0.18006,-0.92188 0.37502,-1.47024 2.43861,-2.195 3.4292,-1.20439 0.31509,0.31507 0.33269,0.37886 0.25992,0.94197 -0.10948,0.84732 -0.47158,1.54973 -0.96665,1.87509 -0.53851,0.35391 -1.33433,0.53913 -1.54615,0.35986 z m -35.87854,-6.88173 c 2.63079,-0.54755 5.39507,-1.78366 7.84273,-3.50706 0.45903,-0.3232 0.83544,-0.64936 0.83648,-0.72479 0.003,-0.22036 -0.9621,-0.3248 -2.94022,-0.31818 -3.23936,0.0108 -6.23917,0.66713 -11.42226,2.49894 -1.07877,0.38126 -2.0332,0.76112 -2.12095,0.84413 -0.13361,0.12641 -0.0486,0.20695 0.52326,0.49561 0.84505,0.42659 2.06774,0.80411 3.04689,0.94079 1.01979,0.14235 2.95036,0.0377 4.23407,-0.22944 z m 56.21616,-5.7542 c 2.2633,-0.46437 4.1207,-1.19956 5.7017,-2.25683 1.0065,-0.67301 2.119,-1.72526 1.9407,-1.83548 -0.06,-0.0374 -0.3923,-0.022 -0.7374,0.0342 -0.6345,0.10327 -2.5291,0.24708 -6.2127,0.4716 -3.59854,0.21933 -5.44178,0.57191 -7.00156,1.33928 -0.8542,0.42023 -1.99783,1.39492 -1.99783,1.70269 0,0.22736 1.00209,0.49146 3.05748,0.80578 0.81862,0.12519 4.18211,-0.0422 5.24961,-0.2612 z m -51.85326,-1.06032 c 1.53796,-0.21391 2.16286,-0.5439 1.5042,-0.79432 -1.23502,-0.46956 -5.66949,-0.70937 -6.87762,-0.37195 -1.19174,0.33286 -1.63522,0.65679 -1.2403,0.90601 0.54685,0.3451 4.80028,0.51248 6.61372,0.26026 z m 46.70234,-3.61991 c 1.31975,-0.39671 2.42896,-0.58638 5.45562,-0.93288 3.7541,-0.42977 5.9318,-0.82215 6.1034,-1.09969 0.1103,-0.17847 -1.3076,-0.76489 -2.3698,-0.98012 -1.3061,-0.26463 -3.7102,-0.1802 -5.019,0.17626 -1.2678,0.34528 -2.43189,0.82454 -3.33391,1.37253 -1.22729,0.74561 -2.31604,1.74637 -1.89992,1.74637 0.0682,0 0.54678,-0.12712 1.06361,-0.28247 z m -31.76952,-0.0189 c 0.34901,-0.0407 0.6978,-0.12429 0.77507,-0.18579 0.2558,-0.20358 -0.14356,-2.57796 -0.7268,-4.32119 -0.50529,-1.51026 -1.50215,-3.64871 -1.67417,-3.59137 -0.1853,0.0618 -0.52725,0.99407 -0.85916,2.34244 -0.3291,1.33701 -0.57886,4.02605 -0.46132,4.9668 0.12422,0.99423 0.44639,1.08051 2.94638,0.78911 z m 20.59502,-1.77559 c 1.76676,-0.85527 2.82196,-3.29061 2.82441,-6.51861 0.001,-1.66968 -0.2332,-3.21077 -0.70169,-4.61188 -0.36228,-1.08349 -0.84127,-2.02225 -1.03183,-2.02225 -0.066,0 -0.11052,0.7659 -0.11052,1.89973 0,3.11783 -0.43628,5.42421 -1.77944,9.40715 -0.3531,1.04704 -0.64232,1.97545 -0.64273,2.06312 -10e-4,0.22383 0.77096,0.10749 1.4418,-0.21726 z"
             id="path4110-7-1-07-5-4" />
        </g>
      </g>
    </g>
  </g>
</svg>
